# xmcd CD database file
#
# Track frame offsets:
#	150
#	23269
#	38615
#	57627
#	82286
#	99111
#	113519
#	133910
#	148578
#	169236
#	186958
#	207672
#
# Disc length: 2947 seconds
#
# Revision: 0
# Processed by: cddbd v1.5.2PL0 Copyright (c) Steve Scherf et al.
# Submitted via: CDex 1.70beta2
#
DISCID=a60b810c
DTITLE=Clare Hansson - Azimuth
DYEAR=2003
DGENRE=Jazz
TTITLE0=Lapis Lazuli
TTITLE1=Breathe Through Ivory
TTITLE2=Turkish Fat Lady
TTITLE3=Azoic Landscape
TTITLE4=That Faint Face
TTITLE5=Beat At Large
TTITLE6=Whire Water Rag
TTITLE7=Acid On Balloon Skin
TTITLE8=Three Crosses And A Desert
TTITLE9=Mammoth Walk
TTITLE10=Azimuth
TTITLE11=Undo Voodoo
EXTD=YEAR: 2003
EXTT0=
EXTT1=
EXTT2=
EXTT3=
EXTT4=
EXTT5=
EXTT6=
EXTT7=
EXTT8=
EXTT9=
EXTT10=
EXTT11=
PLAYORDER=
